<svg width="200" height="100" viewBox="0 0 200 100" fill="none" xmlns="http://www.w3.org/2000/svg">
<rect width="200" height="100" fill="white"/>
<path d="M58.1387 74.0345H62.0182V75.3039H58.1387V74.0345Z" fill="black"/>
<path d="M77.208 68.014L76.899 67.8689C76.8761 67.8689 76.7617 67.8085 76.5557 67.6876H75.8691C74.9307 67.6876 74.2326 68.1107 73.7748 68.957C73.729 69.0779 73.7061 69.1988 73.7061 69.3197V70.1901C73.7061 70.311 73.729 70.4319 73.7748 70.5528C73.8664 70.6737 73.9465 70.7825 74.0151 70.8792C74.1067 70.9517 74.1982 71.0606 74.2898 71.2056C74.45 71.3507 74.6789 71.4837 74.9764 71.6046C75.1595 71.7496 75.4456 71.8947 75.8347 72.0398C76.4298 72.3058 76.9448 72.5475 77.3797 72.7652C77.5399 72.8861 77.7116 73.0069 77.8947 73.1278C78.0778 73.2246 78.238 73.3454 78.3753 73.4905C78.65 73.7807 78.8331 74.0466 78.9246 74.2884C79.1306 74.8445 79.2336 75.2798 79.2336 75.5941H79.165C79.165 76.0293 79.0963 76.4766 78.959 76.936C78.3868 77.7823 77.8947 78.3142 77.4827 78.5318C76.8876 78.8703 76.3726 79.0637 75.9377 79.1121C75.5029 79.1846 75.1252 79.2209 74.8048 79.2209H74.0151C73.832 79.2209 73.6489 79.1967 73.4658 79.1484C73.3056 79.1 73.1454 79.0517 72.9852 79.0033C72.825 78.9791 72.6647 78.9428 72.5045 78.8945C72.3672 78.8461 72.2299 78.7978 72.0925 78.7494C71.9781 78.6769 71.8408 78.6285 71.6805 78.6043V75.4127H72.8135L72.9508 77.3712C72.9966 77.4196 73.0195 77.4679 73.0195 77.5163C73.0653 77.5888 73.1111 77.6493 73.1568 77.6976C73.2255 77.7218 73.2598 77.7581 73.2598 77.8064L73.5688 77.9515C73.6375 77.9515 73.7061 77.9757 73.7748 78.0241L74.2898 78.1691C74.6789 78.1691 75.0108 78.1691 75.2854 78.1691C75.5601 78.1691 75.7775 78.1208 75.9377 78.0241C76.487 77.9032 76.8647 77.6856 77.0707 77.3712C77.1394 77.2262 77.2195 77.1053 77.311 77.0085C77.3797 76.8151 77.414 76.525 77.414 76.1381C77.414 75.7271 77.3225 75.4007 77.1394 75.1589C77.0707 74.9896 76.9677 74.8566 76.8304 74.7599C76.693 74.6632 76.5443 74.5665 76.384 74.4698C76.0407 74.2038 75.7546 74.0345 75.5257 73.962C75.2969 73.8653 75.1023 73.7686 74.9421 73.6719C74.7819 73.5751 74.6217 73.5026 74.4615 73.4543C74.3012 73.3334 74.141 73.2366 73.9808 73.1641C73.9121 73.1399 73.6947 73.019 73.3285 72.8014C72.9852 72.5596 72.722 72.342 72.5389 72.1486C72.1269 71.7134 71.9209 71.0726 71.9209 70.2264C71.9209 69.5977 72.0239 69.1142 72.2299 68.7757C72.413 68.3888 72.6533 68.0261 72.9508 67.6876C73.2255 67.47 73.6489 67.2282 74.2211 66.9622C74.6789 66.8172 75.1023 66.7446 75.4914 66.7446H76.2467C76.384 66.7446 76.5328 66.7809 76.693 66.8534L77.414 66.8897C77.8031 67.0106 78.032 67.0952 78.1007 67.1436C78.4211 67.2403 78.65 67.2887 78.7873 67.2887V70.045H77.7917L77.62 68.413C77.4598 68.2921 77.3797 68.2074 77.3797 68.1591C77.3797 68.1349 77.3568 68.1228 77.311 68.1228V68.0503H77.2767C77.2309 68.0503 77.208 68.0382 77.208 68.014Z" fill="black"/>
<path d="M81.1938 82.9928L80.6788 82.9203C80.5872 82.8961 80.5071 82.8598 80.4385 82.8115C80.3698 82.7631 80.3126 82.7268 80.2668 82.7027C80.2439 82.6543 80.2096 82.5939 80.1638 82.5213C80.0494 82.4246 79.9921 82.2795 79.9921 82.0861C79.9921 81.6751 80.0608 81.397 80.1981 81.2519C80.3355 81.1069 80.4385 80.9739 80.5071 80.853L82.0521 81.6871C82.2352 81.4454 82.3954 81.2519 82.5327 81.1069C82.5785 80.986 82.6357 80.8651 82.7044 80.7442C82.773 80.6475 82.8417 80.5266 82.9104 80.3815C82.979 80.2364 83.0363 80.0913 83.082 79.9463C83.1278 79.8254 83.1736 79.6924 83.2194 79.5473C83.288 79.4264 83.3338 79.3055 83.3567 79.1846C83.4025 79.0879 83.4482 78.9912 83.494 78.8945L80.6788 71.2056L79.6832 70.988V70.2989H83.4254V70.988L82.6014 71.0606C82.5556 71.0606 82.5098 71.0847 82.4641 71.1331C82.4412 71.1814 82.3954 71.2298 82.3267 71.2782C82.2809 71.3265 82.2924 71.3991 82.3611 71.4958L84.318 76.6821L86.3436 71.4958V71.2419C86.2978 71.2177 86.252 71.1814 86.2063 71.1331C86.1605 71.0847 86.1147 71.0606 86.0689 71.0606L85.2793 70.988V70.2989H88.2662V70.988L87.4079 71.2056L84.1463 79.4385C84.1463 79.7528 83.8259 80.5024 83.185 81.6871C83.1393 81.808 83.0591 81.9168 82.9447 82.0136C82.8532 82.1103 82.7616 82.207 82.67 82.3037C82.6014 82.4246 82.4984 82.5213 82.3611 82.5939C82.2237 82.6664 82.0978 82.7631 81.9834 82.884C81.7087 82.9565 81.4455 82.9928 81.1938 82.9928Z" fill="black"/>
<path d="M94.0754 70.444L94.4874 70.5528V72.6201H93.5604L93.3888 71.387C93.2286 71.3144 93.0569 71.254 92.8738 71.2056L92.4618 71.0606C92.3703 71.0122 92.2329 70.988 92.0498 70.988C91.7294 70.988 91.3975 71.0968 91.0542 71.3144C90.8253 71.6288 90.7109 71.931 90.7109 72.2211C90.7109 72.4629 90.8024 72.6926 90.9855 72.9102C91.2144 73.1762 91.4662 73.3817 91.7408 73.5268C91.9011 73.6719 92.1299 73.8048 92.4275 73.9257C92.7479 74.0466 92.9539 74.1554 93.0455 74.2522C93.1599 74.3247 93.2858 74.3972 93.4231 74.4698C93.7207 74.6632 93.9266 74.8204 94.0411 74.9413L94.3157 75.2677C94.5446 75.4853 94.6591 75.8359 94.6591 76.3194V76.3557C94.6591 76.7426 94.6018 77.1415 94.4874 77.5526C94.0525 78.3021 93.4918 78.7736 92.8051 78.967C92.3931 79.1363 91.9468 79.2209 91.4662 79.2209L90.7109 79.1484C90.5507 79.1 90.4133 79.0637 90.2989 79.0396C90.2073 79.0396 90.1158 79.0154 90.0242 78.967C89.9327 78.9187 89.8411 78.8945 89.7496 78.8945C89.658 78.8945 89.555 78.8703 89.4406 78.822C89.349 78.822 89.2231 78.7615 89.0629 78.6406V76.3194H89.9899L90.1959 77.879C90.2646 77.9273 90.3447 77.9757 90.4362 78.0241C90.5507 78.0482 90.6651 78.0966 90.7795 78.1691C91.0542 78.3384 91.3517 78.3988 91.6722 78.3505C92.2901 78.3021 92.7708 78.012 93.1141 77.48C93.137 77.3833 93.1485 77.2382 93.1485 77.0448C93.1485 76.6338 93.1141 76.3799 93.0455 76.2832C92.9768 76.1865 92.9081 76.1018 92.8395 76.0293C92.7708 75.9568 92.7136 75.8842 92.6678 75.8117L92.3588 75.6303C92.2444 75.582 92.1185 75.5215 91.9812 75.449C91.8667 75.3523 91.7408 75.2798 91.6035 75.2314C91.4662 75.1589 91.3174 75.0742 91.1572 74.9775C90.9283 74.8324 90.6537 74.6874 90.3332 74.5423C90.2417 74.4214 90.1272 74.3247 89.9899 74.2522C89.8755 74.1554 89.7839 74.0587 89.7152 73.962C89.3948 73.5751 89.2346 73.1883 89.2346 72.8014C89.2346 71.5683 89.8182 70.7341 90.9855 70.2989C91.306 70.2022 91.6264 70.1538 91.9468 70.1538H92.5991C92.7365 70.1538 92.8509 70.178 92.9425 70.2264L93.6291 70.2989C93.7435 70.2989 93.8923 70.3473 94.0754 70.444Z" fill="black"/>
<path d="M100.405 77.9515C100.519 77.9515 100.645 77.9032 100.783 77.8064V78.4955C100.554 78.6406 100.302 78.7494 100.027 78.822C99.9814 78.8703 99.8899 78.9066 99.7526 78.9308C99.6152 78.9791 99.4779 79.0275 99.3406 79.0758C99.2032 79.1242 99.0659 79.1484 98.9286 79.1484H98.4823C97.2692 79.1484 96.6627 78.4835 96.6627 77.1536V71.2419H95.6327V70.5891L96.7313 70.045L97.521 68.1591H98.2419V70.2989H100.645V71.2419H98.2419V76.2469C98.2419 76.2469 98.2648 76.525 98.3106 77.0811C98.3564 77.202 98.4022 77.3108 98.4479 77.4075C98.4937 77.5042 98.5395 77.5888 98.5853 77.6614C98.7455 77.9273 98.9286 78.0724 99.1346 78.0966C99.3406 78.1208 99.5237 78.1329 99.6839 78.1329C99.8441 78.1329 99.9586 78.0966 100.027 78.0241C100.233 78.0241 100.359 77.9999 100.405 77.9515Z" fill="black"/>
<path d="M108.818 78.0241C108.475 78.3142 108.166 78.5076 107.891 78.6043C107.616 78.7011 107.41 78.7736 107.273 78.822C107.136 78.8703 107.01 78.9066 106.895 78.9308C106.781 78.9791 106.644 79.0275 106.483 79.0758C106.346 79.1242 106.209 79.1484 106.071 79.1484H105.591C105.041 79.1484 104.607 79.0758 104.286 78.9308C103.416 78.5439 102.798 78.0482 102.432 77.4438C102.318 77.2262 102.169 76.8997 101.986 76.4645C101.803 76.0293 101.711 75.5457 101.711 75.0138C101.711 74.2642 101.814 73.5389 102.02 72.8377C102.249 72.3058 102.524 71.8222 102.844 71.387C103.233 71.0001 103.657 70.6858 104.114 70.444C104.778 70.2506 105.27 70.1538 105.591 70.1538C106.071 70.1538 106.586 70.2264 107.136 70.3715C107.479 70.6374 107.799 70.9155 108.097 71.2056C108.303 71.5199 108.497 71.8947 108.681 72.3299C108.772 72.7168 108.818 73.2004 108.818 73.7807V74.3247H103.359C103.359 74.6874 103.416 75.1347 103.531 75.6666C103.599 75.8359 103.657 76.0293 103.702 76.2469C103.771 76.4403 103.851 76.6459 103.943 76.8635C104.469 77.6372 105.224 78.0241 106.209 78.0241H106.552C106.804 78.0241 107.159 77.9152 107.616 77.6976C107.708 77.6251 107.811 77.5647 107.925 77.5163C108.04 77.4679 108.131 77.4075 108.2 77.335C108.497 77.1899 108.703 77.0569 108.818 76.936V78.0241ZM107.17 73.1278C107.17 72.9586 107.147 72.8135 107.101 72.6926C107.078 72.5717 107.044 72.4387 106.998 72.2937C106.861 71.8585 106.712 71.5804 106.552 71.4595C106.415 71.3386 106.3 71.254 106.209 71.2056C106.117 71.1089 105.888 71.0606 105.522 71.0606C104.835 71.0606 104.366 71.2782 104.114 71.7134C104 71.8101 103.92 71.931 103.874 72.0761C103.828 72.197 103.748 72.342 103.634 72.5113C103.611 72.7289 103.542 73.0674 103.428 73.5268H107.17V73.1278Z" fill="black"/>
<path d="M110.733 78.0241C110.824 78.0241 110.87 77.9515 110.87 77.8064V71.6046H109.668V70.988L111.797 70.3715H112.449V71.2419C112.564 71.2177 112.758 71.0847 113.033 70.8429C113.147 70.7946 113.262 70.7462 113.376 70.6979C113.491 70.6253 113.605 70.577 113.719 70.5528C114.154 70.2868 114.486 70.1538 114.715 70.1538C114.99 70.1538 115.219 70.1538 115.402 70.1538C115.608 70.1538 115.779 70.178 115.917 70.2264C115.963 70.2747 116.031 70.311 116.123 70.3352C116.466 70.5044 116.741 70.7704 116.947 71.1331C116.992 71.2298 117.015 71.3144 117.015 71.387C117.107 71.3144 117.21 71.2661 117.324 71.2419C117.462 71.1935 117.576 71.1089 117.668 70.988C117.782 70.9397 117.897 70.8792 118.011 70.8067C118.148 70.7341 118.274 70.6616 118.389 70.5891C118.732 70.3956 119.018 70.2989 119.247 70.2989C119.361 70.2022 119.487 70.1538 119.625 70.1538H120.002C120.368 70.1538 120.712 70.2264 121.032 70.3715C121.192 70.4923 121.33 70.6012 121.444 70.6979C121.559 70.7704 121.65 70.8792 121.719 71.0243C121.81 71.1694 121.879 71.3144 121.925 71.4595C121.971 71.6046 122.028 71.7738 122.097 71.9673C122.142 72.3058 122.165 72.608 122.165 72.874V77.6976C122.165 77.9152 122.268 78.0724 122.474 78.1691H123.298V78.8945H119.556L119.487 78.2779L120.208 78.1691C120.3 78.1691 120.38 78.1208 120.449 78.0241C120.494 78.0241 120.517 77.9999 120.517 77.9515V72.874C120.517 72.7531 120.494 72.6322 120.449 72.5113C120.449 72.3904 120.414 72.2937 120.346 72.2211C120.3 72.1244 120.254 72.0277 120.208 71.931C120.048 71.6408 119.785 71.4958 119.419 71.4958H118.595L118.114 71.5683C117.931 71.665 117.782 71.7134 117.668 71.7134C117.53 71.7859 117.393 71.8705 117.256 71.9673V77.8064C117.256 77.879 117.301 77.9515 117.393 78.0241C117.462 78.1208 117.53 78.1691 117.599 78.1691H118.354V78.8945H114.612V78.1691H115.367C115.413 78.1691 115.47 78.1329 115.539 78.0603C115.631 77.9878 115.676 77.9032 115.676 77.8064V72.8014C115.676 72.6805 115.654 72.5596 115.608 72.4387C115.608 72.2211 115.528 72.0277 115.367 71.8585C115.345 71.7617 115.23 71.6771 115.024 71.6046C114.841 71.532 114.692 71.4958 114.578 71.4958C114.28 71.4958 114.063 71.4958 113.925 71.4958C113.376 71.4958 112.999 71.6046 112.793 71.8222C112.655 71.8222 112.541 71.8705 112.449 71.9673V77.9515C112.449 77.9999 112.472 78.0241 112.518 78.0241C112.632 78.1208 112.724 78.1691 112.793 78.1691L113.514 78.2779V78.8945H109.668V78.2779L110.527 78.1691C110.664 78.1691 110.733 78.1208 110.733 78.0241Z" fill="black"/>
<path d="M128.952 70.444L129.364 70.5528V72.6201H128.437L128.266 71.387C128.106 71.3144 127.934 71.254 127.751 71.2056L127.339 71.0606C127.247 71.0122 127.11 70.988 126.927 70.988C126.606 70.988 126.274 71.0968 125.931 71.3144C125.702 71.6288 125.588 71.931 125.588 72.2211C125.588 72.4629 125.679 72.6926 125.862 72.9102C126.091 73.1762 126.343 73.3817 126.618 73.5268C126.778 73.6719 127.007 73.8048 127.304 73.9257C127.625 74.0466 127.831 74.1554 127.922 74.2522C128.037 74.3247 128.163 74.3972 128.3 74.4698C128.598 74.6632 128.804 74.8204 128.918 74.9413L129.193 75.2677C129.422 75.4853 129.536 75.8359 129.536 76.3194V76.3557C129.536 76.7426 129.479 77.1415 129.364 77.5526C128.929 78.3021 128.369 78.7736 127.682 78.967C127.27 79.1363 126.824 79.2209 126.343 79.2209L125.588 79.1484C125.428 79.1 125.29 79.0637 125.176 79.0396C125.084 79.0396 124.993 79.0154 124.901 78.967C124.81 78.9187 124.718 78.8945 124.627 78.8945C124.535 78.8945 124.432 78.8703 124.318 78.822C124.226 78.822 124.1 78.7615 123.94 78.6406V76.3194H124.867L125.073 77.879C125.141 77.9273 125.222 77.9757 125.313 78.0241C125.428 78.0482 125.542 78.0966 125.656 78.1691C125.931 78.3384 126.229 78.3988 126.549 78.3505C127.167 78.3021 127.648 78.012 127.991 77.48C128.014 77.3833 128.025 77.2382 128.025 77.0448C128.025 76.6338 127.991 76.3799 127.922 76.2832C127.854 76.1865 127.785 76.1018 127.716 76.0293C127.648 75.9568 127.591 75.8842 127.545 75.8117L127.236 75.6303C127.121 75.582 126.995 75.5215 126.858 75.449C126.744 75.3523 126.618 75.2798 126.48 75.2314C126.343 75.1589 126.194 75.0742 126.034 74.9775C125.805 74.8324 125.531 74.6874 125.21 74.5423C125.119 74.4214 125.004 74.3247 124.867 74.2522C124.752 74.1554 124.661 74.0587 124.592 73.962C124.272 73.5751 124.112 73.1883 124.112 72.8014C124.112 71.5683 124.695 70.7341 125.862 70.2989C126.183 70.2022 126.503 70.1538 126.824 70.1538H127.476C127.613 70.1538 127.728 70.178 127.819 70.2264L128.506 70.2989C128.62 70.2989 128.769 70.3473 128.952 70.444Z" fill="black"/>
<path d="M138.982 74.0345H142.861V75.3039H138.982V74.0345Z" fill="black"/>
<path d="M21 60.9417L180 60.9416" stroke="black"/>
<path fill-rule="evenodd" clip-rule="evenodd" d="M28 18C24.134 18 21 21.134 21 25V46.9781C21 50.8441 24.134 53.9781 28 53.9781H30.2482C34.1142 53.9781 37.2482 50.8441 37.2482 46.9781V25C37.2482 21.134 34.1142 18 30.2482 18H28ZM29.1241 21.4818C26.5602 21.4818 24.4818 23.5603 24.4818 26.1241V45.8541C24.4818 48.418 26.5602 50.4964 29.1241 50.4964C31.688 50.4964 33.7664 48.418 33.7664 45.8541V26.1241C33.7664 23.5602 31.688 21.4818 29.1241 21.4818Z" fill="black"/>
<path fill-rule="evenodd" clip-rule="evenodd" d="M130.131 18C126.265 18 123.131 21.134 123.131 25V46.9781C123.131 50.8441 126.265 53.9781 130.131 53.9781H132.379C136.245 53.9781 139.379 50.8441 139.379 46.9781V25C139.379 21.134 136.245 18 132.379 18H130.131ZM131.255 21.4818C128.691 21.4818 126.613 23.5602 126.613 26.1241V45.854C126.613 48.4179 128.691 50.4963 131.255 50.4963C133.819 50.4963 135.897 48.4179 135.897 45.854V26.1241C135.897 23.5602 133.819 21.4818 131.255 21.4818Z" fill="black"/>
<rect x="92.9561" y="18" width="3.48175" height="35.9781" fill="black"/>
<path fill-rule="evenodd" clip-rule="evenodd" d="M70.9053 53.9781V18H74.387L83.6715 44.1654V18.0001H87.1533V53.9776L87.1534 53.9781H87.1533V53.9782H83.6715V53.9776L74.387 27.8122V53.9781H70.9053Z" fill="black"/>
<path fill-rule="evenodd" clip-rule="evenodd" d="M43.0518 18V53.9781H46.5335V30.6214L52.3364 51.6569H55.8182L61.6211 30.6214V53.9781H65.1029V18H61.6211L54.0773 45.3463L46.5335 18H43.0518Z" fill="black"/>
<path fill-rule="evenodd" clip-rule="evenodd" d="M180.001 21.4818V18H174.198H170.716L164.913 18L164.913 21.4818L170.716 21.4818V53.9781H174.198V21.4818L180.001 21.4818Z" fill="black"/>
<path fill-rule="evenodd" clip-rule="evenodd" d="M102.24 18H105.722V35.4088H113.846V18H117.328L117.328 35.4088V38.8905L117.328 53.9781H113.846V38.8905H105.722V53.9781H102.24V18Z" fill="black"/>
<path fill-rule="evenodd" clip-rule="evenodd" d="M144.023 25.0002C144.023 21.1342 147.157 18.0002 151.023 18.0002H153.271C157.137 18.0002 160.271 21.1343 160.271 25.0002V28.4454H156.79V26.1243C156.79 23.5604 154.711 21.482 152.147 21.482C149.583 21.482 147.505 23.5604 147.505 26.1243V28.4454H147.504V29.1417C147.504 31.962 149.79 34.2483 152.611 34.2483C156.841 34.2483 160.271 37.6777 160.271 41.9082V43.533H160.27V46.978C160.27 50.844 157.136 53.978 153.27 53.978H151.021C147.155 53.978 144.021 50.844 144.021 46.978L144.021 43.5329H147.503V45.8539C147.503 48.4178 149.582 50.4963 152.146 50.4963C154.709 50.4963 156.788 48.4178 156.788 45.8539V43.5329H156.789V42.8366C156.789 40.0164 154.502 37.7301 151.682 37.7301C147.452 37.7301 144.022 34.3006 144.022 30.0702V28.4454H144.023V25.0002Z" fill="black"/>
</svg>
