<svg id="Layer_1" data-name="Layer 1" xmlns="http://www.w3.org/2000/svg" viewBox="0 0 512 512"><defs><style>.cls-1{fill:#fff;}</style></defs><path class="cls-1" d="M113.5,22.5c-18.6,4-35.4,17.5-43.6,35C64.1,69.9,64,70.9,64,126.1v50.6l2.3,4.4a27.26,27.26,0,0,0,6.6,7.4c3.9,2.7,5,3,12.5,3s8.7-.3,12.4-2.9a21.73,21.73,0,0,0,6.7-7.9l2.5-5.1v-46c0-29.4.4-47.5,1.1-49.9,1.3-4.7,6.7-10.9,11.7-13.3,3.5-1.8,8.1-1.9,80.5-2.2l76.7-.3V175.6l2.5,5.1a21.73,21.73,0,0,0,6.7,7.9l4.1,2.9,57.4.3,57.3.2V310.3c0,80.2-.4,119.4-1.1,122-1.3,4.7-6.7,10.9-11.7,13.3-3.5,1.8-10.4,1.9-159.2,2.4-170.4.5-158.1.1-163.6,6.2-4.4,4.7-5.6,8.7-5.2,16.3.4,9.2,3.6,14.3,11.2,18l5.2,2.5,158.4-.2,158.5-.3,7.3-2.7c19.1-7,32.6-20.2,40.1-39.6l2.6-6.7.3-143.8c.2-140.8.2-143.8-1.7-147.5-2.9-5.6-123.7-125.8-128.3-127.7-3.3-1.3-15.7-1.5-101-1.4C140.4,21.1,118.2,21.4,113.5,22.5Zm239,94.5,32,32H320V117c0-17.6.1-32,.3-32S334.9,99.4,352.5,117Z"/><path class="cls-1" d="M185.8,234.9a23.09,23.09,0,0,0-12.6,9.9c-3.4,5.8-3.8,15.6-.8,21.2,1,1.9,8.2,9.9,15.9,17.7L202.4,298l-83,.2-82.9.3L32,301a30.26,30.26,0,0,0-7.5,6.8c-2.7,4-3,5.1-3,12.2s.3,8.2,3,12.2A30.26,30.26,0,0,0,32,339l4.5,2.5,82.9.3,83,.2-14.1,14.3c-7.7,7.8-14.9,15.8-15.9,17.7-1.2,2.3-1.8,5.7-1.9,10,0,8.5,3.4,14.7,10.3,18.7a22.53,22.53,0,0,0,22.2.1c5.6-3.3,70.1-68,72.6-72.8,2.9-5.6,2.6-15.4-.8-21s-68.1-70.2-72.7-72.5C198.2,234.5,189.6,233.7,185.8,234.9Z"/></svg>