<svg width="64" height="42" viewBox="0 0 64 42" fill="none" xmlns="http://www.w3.org/2000/svg">
<path fill-rule="evenodd" clip-rule="evenodd" d="M51.1715 15.6858C49.4056 6.72618 41.5367 0 32.0837 0C24.5784 0 18.06 4.25905 14.8138 10.4918C6.99686 11.3228 0.919922 17.9452 0.919922 25.9698C0.919922 34.5658 7.90581 41.5517 16.5018 41.5517H50.2626C57.4303 41.5517 63.2475 35.7345 63.2475 28.5668C63.2475 21.7108 57.9237 16.1532 51.1715 15.6858ZM50.2624 36.3581H16.5016C10.7622 36.3581 6.11365 31.7095 6.11365 25.9702C6.11365 20.6464 10.087 16.2055 15.3589 15.6602L18.1377 15.3745L19.4362 12.9074C21.9033 8.1549 26.7337 5.19434 32.0835 5.19434C38.8876 5.19434 44.7568 10.0247 46.0812 16.699L46.8603 20.5944L50.8337 20.8801C54.885 21.1398 58.0533 24.5419 58.0533 28.5672C58.0533 32.8522 54.5474 36.3581 50.2624 36.3581ZM28.3179 23.3733H21.6956L32.0835 12.9854L42.4714 23.3733H35.8491V31.1642H28.3179V23.3733Z" fill="#2F2F9C"/>
</svg>
