<svg width="17" height="15" viewBox="0 0 17 15" fill="none" xmlns="http://www.w3.org/2000/svg">
<path fill-rule="evenodd" clip-rule="evenodd" d="M2.89649 3.5C2.47909 3.5 2.14072 3.83579 2.14072 4.25V12.75C2.14072 13.1642 2.47909 13.5 2.89649 13.5H11.4618C11.8792 13.5 12.2176 13.1642 12.2176 12.75V8.75C12.2176 8.33579 12.5559 8 12.9733 8C13.3907 8 13.7291 8.33579 13.7291 8.75V12.75C13.7291 13.9926 12.714 15 11.4618 15H2.89649C1.6443 15 0.629196 13.9926 0.629196 12.75V4.25C0.629196 3.00736 1.6443 2 2.89649 2H7.93491C8.35231 2 8.69068 2.33579 8.69068 2.75C8.69068 3.16421 8.35231 3.5 7.93491 3.5H2.89649Z" fill="white"/>
<path fill-rule="evenodd" clip-rule="evenodd" d="M4.85527 10.7532C5.13531 11.0603 5.61324 11.0841 5.92275 10.8062L15.2406 2.43999V5.25C15.2406 5.66421 15.579 6 15.9964 6C16.4138 6 16.7522 5.66421 16.7522 5.25V0.75C16.7522 0.335787 16.4138 0 15.9964 0H11.4618C11.0444 0 10.706 0.335787 10.706 0.75C10.706 1.16421 11.0444 1.5 11.4618 1.5H14.0346L4.90865 9.69385C4.59913 9.97175 4.57524 10.446 4.85527 10.7532Z" fill="white"/>
</svg>
