<svg width="18" height="18" viewBox="0 0 18 18" fill="none" xmlns="http://www.w3.org/2000/svg">
<circle cx="9" cy="9" r="8.5" fill="#FDF53A" stroke="#B3AB00"/>
<path d="M8.26163 10.084L7.88963 4.6H10.1216L9.74963 10.084H8.26163ZM9.00563 13.096C8.66963 13.096 8.39363 12.988 8.17763 12.772C7.96163 12.556 7.85363 12.3 7.85363 12.004C7.85363 11.7 7.96163 11.448 8.17763 11.248C8.39363 11.04 8.66963 10.936 9.00563 10.936C9.34963 10.936 9.62563 11.04 9.83363 11.248C10.0496 11.448 10.1576 11.7 10.1576 12.004C10.1576 12.3 10.0496 12.556 9.83363 12.772C9.62563 12.988 9.34963 13.096 9.00563 13.096Z" fill="#B3AB00"/>
</svg>
